<svg xmlns="http://www.w3.org/2000/svg" xmlns:xlink="http://www.w3.org/1999/xlink" contentStyleType="text/css" height="531px" preserveAspectRatio="none" style="width:403px;height:531px;background:#FFFFFF;" version="1.1" viewBox="0 0 403 531" width="403px" zoomAndPan="magnify"><defs/><g><!--cluster com.app--><g id="cluster_com.app"><path d="M84.5,6 L145.7109,6 A3.75,3.75 0 0 1 148.2109,8.5 L155.2109,28.4883 L379.5,28.4883 A2.5,2.5 0 0 1 382,30.9883 L382,142.5 A2.5,2.5 0 0 1 379.5,145 L84.5,145 A2.5,2.5 0 0 1 82,142.5 L82,8.5 A2.5,2.5 0 0 1 84.5,6 " fill="none" style="stroke:#000000;stroke-width:1.5;"/><line style="stroke:#000000;stroke-width:1.5;" x1="82" x2="155.2109" y1="28.4883" y2="28.4883"/><text fill="#000000" font-family="sans-serif" font-size="14" font-weight="bold" lengthAdjust="spacing" textLength="60.2109" x="86" y="21.5352">com.app</text></g><!--cluster androidx.navigation--><g id="cluster_androidx.navigation"><path d="M8.5,194 L153.1777,194 A3.75,3.75 0 0 1 155.6777,196.5 L162.6777,216.4883 L287.5,216.4883 A2.5,2.5 0 0 1 290,218.9883 L290,521.94 A2.5,2.5 0 0 1 287.5,524.44 L8.5,524.44 A2.5,2.5 0 0 1 6,521.94 L6,196.5 A2.5,2.5 0 0 1 8.5,194 " fill="none" style="stroke:#000000;stroke-width:1.5;"/><line style="stroke:#000000;stroke-width:1.5;" x1="6" x2="162.6777" y1="216.4883" y2="216.4883"/><text fill="#000000" font-family="sans-serif" font-size="14" font-weight="bold" lengthAdjust="spacing" textLength="143.6777" x="10" y="209.5352">androidx.navigation</text></g><!--class MainActivity--><g id="elem_MainActivity"><rect codeLine="6" fill="#F1F1F1" height="80.9766" id="MainActivity" rx="2.5" ry="2.5" style="stroke:#181818;stroke-width:0.5;" width="251.4287" x="106.5" y="45"/><ellipse cx="186.7231" cy="61" fill="#ADD1B2" rx="11" ry="11" style="stroke:#181818;stroke-width:1.0;"/><path d="M189.6963,66.6431 Q189.1152,66.9419 188.4761,67.0913 Q187.8369,67.2407 187.1313,67.2407 Q184.6245,67.2407 183.3047,65.5889 Q181.9849,63.937 181.9849,60.8159 Q181.9849,57.6865 183.3047,56.0347 Q184.6245,54.3828 187.1313,54.3828 Q187.8369,54.3828 188.4844,54.5322 Q189.1318,54.6816 189.6963,54.9805 L189.6963,57.7031 Q189.0654,57.1221 188.4719,56.8523 Q187.8784,56.5825 187.2476,56.5825 Q185.9028,56.5825 185.218,57.6492 Q184.5332,58.7158 184.5332,60.8159 Q184.5332,62.9077 185.218,63.9744 Q185.9028,65.041 187.2476,65.041 Q187.8784,65.041 188.4719,64.7712 Q189.0654,64.5015 189.6963,63.9204 Z " fill="#000000"/><text fill="#000000" font-family="sans-serif" font-size="14" lengthAdjust="spacing" textLength="82.4824" x="207.2231" y="66.291">MainActivity</text><line style="stroke:#181818;stroke-width:0.5;" x1="107.5" x2="356.9287" y1="77" y2="77"/><rect fill="none" height="6" style="stroke:#C82930;stroke-width:1.0;" width="6" x="114.5" y="87.7441"/><text fill="#000000" font-family="sans-serif" font-size="14" lengthAdjust="spacing" textLength="225.4287" x="126.5" y="94.5352">navController: NavHostController</text><rect fill="none" height="6" style="stroke:#C82930;stroke-width:1.0;" width="6" x="114.5" y="104.2324"/><text fill="#000000" font-family="sans-serif" font-size="14" lengthAdjust="spacing" textLength="156.5908" x="126.5" y="111.0234">content: @Composable</text><line style="stroke:#181818;stroke-width:0.5;" x1="107.5" x2="356.9287" y1="117.9766" y2="117.9766"/></g><!--class NavHostController--><g id="elem_NavHostController"><rect codeLine="13" fill="#F1F1F1" height="64.4883" id="NavHostController" rx="2.5" ry="2.5" style="stroke:#181818;stroke-width:0.5;" width="177.1973" x="44.5" y="233"/><ellipse cx="68.7048" cy="249" fill="#ADD1B2" rx="11" ry="11" style="stroke:#181818;stroke-width:1.0;"/><path d="M71.6779,254.6431 Q71.0969,254.9419 70.4577,255.0913 Q69.8186,255.2407 69.113,255.2407 Q66.6062,255.2407 65.2863,253.5889 Q63.9665,251.937 63.9665,248.8159 Q63.9665,245.6865 65.2863,244.0347 Q66.6062,242.3828 69.113,242.3828 Q69.8186,242.3828 70.466,242.5322 Q71.1135,242.6816 71.6779,242.9805 L71.6779,245.7031 Q71.0471,245.1221 70.4536,244.8523 Q69.8601,244.5825 69.2292,244.5825 Q67.8845,244.5825 67.1997,245.6492 Q66.5148,246.7158 66.5148,248.8159 Q66.5148,250.9077 67.1997,251.9744 Q67.8845,253.041 69.2292,253.041 Q69.8601,253.041 70.4536,252.7712 Q71.0471,252.5015 71.6779,251.9204 Z " fill="#000000"/><text fill="#000000" font-family="sans-serif" font-size="14" lengthAdjust="spacing" textLength="124.7422" x="84.7503" y="254.291">NavHostController</text><line style="stroke:#181818;stroke-width:0.5;" x1="45.5" x2="220.6973" y1="265" y2="265"/><line style="stroke:#181818;stroke-width:0.5;" x1="45.5" x2="220.6973" y1="273" y2="273"/><ellipse cx="55.5" cy="286.7441" fill="#84BE84" rx="3" ry="3" style="stroke:#038048;stroke-width:1.0;"/><text fill="#000000" font-family="sans-serif" font-size="14" lengthAdjust="spacing" textLength="151.1973" x="64.5" y="290.5352">navigate(route: String)</text></g><!--class NavHost--><g id="elem_NavHost"><rect codeLine="17" fill="#F1F1F1" height="130.4414" id="NavHost" rx="2.5" ry="2.5" style="stroke:#181818;stroke-width:0.5;" width="251.4287" x="22.29" y="378"/><ellipse cx="72.1875" cy="394" fill="#ADD1B2" rx="11" ry="11" style="stroke:#181818;stroke-width:1.0;"/><path d="M75.1606,399.6431 Q74.5796,399.9419 73.9404,400.0913 Q73.3012,400.2407 72.5957,400.2407 Q70.0888,400.2407 68.769,398.5889 Q67.4492,396.937 67.4492,393.8159 Q67.4492,390.6865 68.769,389.0347 Q70.0888,387.3828 72.5957,387.3828 Q73.3012,387.3828 73.9487,387.5322 Q74.5962,387.6816 75.1606,387.9805 L75.1606,390.7031 Q74.5297,390.1221 73.9362,389.8523 Q73.3427,389.5825 72.7119,389.5825 Q71.3671,389.5825 70.6823,390.6492 Q69.9975,391.7158 69.9975,393.8159 Q69.9975,395.9077 70.6823,396.9744 Q71.3671,398.041 72.7119,398.041 Q73.3427,398.041 73.9362,397.7712 Q74.5297,397.5015 75.1606,396.9204 Z " fill="#000000"/><text fill="#000000" font-family="sans-serif" font-size="14" lengthAdjust="spacing" textLength="56.5811" x="92.6875" y="399.291">NavHost</text><rect fill="#FFFFFF" height="16.1328" style="stroke:#181818;stroke-width:1.0;stroke-dasharray:2.0,2.0;" width="84.5527" x="192.166" y="375"/><text fill="#000000" font-family="sans-serif" font-size="12" font-style="italic" lengthAdjust="spacing" textLength="82.5527" x="193.166" y="387.6016">@Composable</text><line style="stroke:#181818;stroke-width:0.5;" x1="23.29" x2="272.7187" y1="410" y2="410"/><rect fill="none" height="6" style="stroke:#C82930;stroke-width:1.0;" width="6" x="30.29" y="420.7441"/><text fill="#000000" font-family="sans-serif" font-size="14" lengthAdjust="spacing" textLength="225.4287" x="42.29" y="427.5352">navController: NavHostController</text><line style="stroke:#181818;stroke-width:1.0;" x1="23.29" x2="272.7187" y1="434.4883" y2="434.4883"/><line style="stroke:#181818;stroke-width:1.0;" x1="23.29" x2="272.7187" y1="436.4883" y2="436.4883"/><ellipse cx="33.29" cy="448.2324" fill="none" rx="3" ry="3" style="stroke:#038048;stroke-width:1.0;"/><text fill="#000000" font-family="sans-serif" font-size="14" lengthAdjust="spacing" textLength="195.8018" x="42.29" y="452.0234">composable1: @Composable</text><ellipse cx="33.29" cy="464.7207" fill="none" rx="3" ry="3" style="stroke:#038048;stroke-width:1.0;"/><text fill="#000000" font-family="sans-serif" font-size="14" lengthAdjust="spacing" textLength="195.8018" x="42.29" y="468.5117">composable2: @Composable</text><text fill="#000000" font-family="sans-serif" font-size="14" lengthAdjust="spacing" textLength="13.2891" x="42.29" y="485">...</text><ellipse cx="33.29" cy="497.6973" fill="none" rx="3" ry="3" style="stroke:#038048;stroke-width:1.0;"/><text fill="#000000" font-family="sans-serif" font-size="14" lengthAdjust="spacing" textLength="197.292" x="42.29" y="501.4883">composableN: @Composable</text></g><!--link MainActivity to NavHostController--><g id="link_MainActivity_NavHostController"><path codeLine="27" d="M105.5,89 C87.72,89 98.92,112.91 106.5,129 C135.35,190.28 192.87,167.62 221.5,229 C232.02,251.56 253.39,285 228.5,285 " fill="none" id="MainActivity-to-NavHostController" style="stroke:#808080;stroke-width:1.0;stroke-dasharray:7.0,7.0;"/><polygon fill="#808080" points="222.5,285,231.5,289,227.5,285,231.5,281,222.5,285" style="stroke:#808080;stroke-width:1.0;"/><text fill="#000000" font-family="sans-serif" font-size="13" lengthAdjust="spacing" textLength="82.9131" x="161.39" y="174.5684">change route</text></g><!--link MainActivity to NavHost--><g id="link_MainActivity_NavHost"><path codeLine="28" d="M358.5,105 C369.73,105 359.57,211.42 257,348 C249.26,358.3 244.5063,364.0613 235.0063,373.4113 " fill="none" id="MainActivity-to-NavHost" style="stroke:#808080;stroke-width:1.0;stroke-dasharray:7.0,7.0;"/><polygon fill="#808080" points="230.73,377.62,239.9502,374.1577,234.2936,374.1127,234.3386,368.456,230.73,377.62" style="stroke:#808080;stroke-width:1.0;"/><text fill="#000000" font-family="sans-serif" font-size="13" lengthAdjust="spacing" textLength="48.001" x="347.79" y="270.0684">renders</text></g><!--reverse link NavHostController to NavHost--><g id="link_NavHostController_NavHost"><path codeLine="30" d="M136.4685,306.7884 C138.3285,328.6584 140.28,351.56 142.49,377.52 " fill="none" id="NavHostController-backto-NavHost" style="stroke:#808080;stroke-width:1.0;stroke-dasharray:7.0,7.0;"/><polygon fill="#808080" points="135.96,300.81,132.7371,310.1166,136.3837,305.792,140.7083,309.4387,135.96,300.81" style="stroke:#808080;stroke-width:1.0;"/><text fill="#000000" font-family="sans-serif" font-size="13" lengthAdjust="spacing" textLength="107.4531" x="140.6" y="344.5684">get current route</text></g><!--SRC=[bL91JiCm4Bpx5Ijn08Jg28uMhK0zm8LUUC7YM8c5OrlhJKI5-dTCS4bAu82FdjcPsR7FM-QOL5L5XvxxpaaTkaexJ6bLMsm8Eo6IOKWc8Y470X-y4IAYViN6GAPBZ17U1UGp3i8JMd-lsGwMzmLOWSTX6pnJSCwGWXqEZo7nT5LeEbyOpmhkjg6B8U6BCoDq48V95NrDmTPlCglQ1ja6Vv9WeLxGAoW3ve92pqR1CvFrpMMnM4h0xIp8vb_BhDV5KtyBN2_tciCtIrXAkQ3j_cXdthjI9ncppcOPSoIDTPmz4Ev1WMxHvtx7SdxebPS1IRPfUP8RHnKPNnjAGXnxattypV9erEG_fNkYJyKlD_41]--></g></svg>